<svg xmlns="http://www.w3.org/2000/svg" viewBox="0 0 1200 675">
  <defs><linearGradient id="bg" x1="0" x2="1" y1="0" y2="1"><stop offset="0" stop-color="#fff7ed"/><stop offset="1" stop-color="#e0f2fe"/></linearGradient></defs>
  <rect width="1200" height="675" fill="url(#bg)"/>
  <circle cx="1020" cy="130" r="82" fill="#f59e0b"/>
  <path d="M0 505 C230 390 390 545 620 430 C840 320 1040 450 1200 350 L1200 675 L0 675 Z" fill="#16a34a"/>
  <rect x="170" y="180" width="360" height="245" rx="28" fill="#ffffff"/>
  <rect x="215" y="230" width="270" height="25" rx="12" fill="#1747a6"/>
  <rect x="215" y="285" width="210" height="18" rx="9" fill="#7dd3fc"/>
  <rect x="215" y="325" width="245" height="18" rx="9" fill="#7dd3fc"/>
  <rect x="650" y="245" width="250" height="150" rx="16" fill="#0f766e"/>
  <rect x="690" y="285" width="170" height="70" rx="12" fill="#ccfbf1"/>
  <text x="90" y="585" font-family="Arial, sans-serif" font-size="56" font-weight="800" fill="#ffffff">Mua he xanh</text>
  <text x="94" y="628" font-family="Arial, sans-serif" font-size="28" fill="#ecfeff">Lop hoc so cho em tai Hoa Bac</text>
</svg>
